<mxfile host="Electron" modified="2024-02-19T21:43:21.264Z" agent="Mozilla/5.0 (Windows NT 10.0; Win64; x64) AppleWebKit/537.36 (KHTML, like Gecko) draw.io/22.0.3 Chrome/114.0.5735.289 Electron/25.8.4 Safari/537.36" etag="XwINF1PnH-98s37hIYtQ" version="22.0.3" type="device">
  <diagram name="Page-1" id="WNZn0_V4W9YoB_Ds0cQM">
    <mxGraphModel dx="2058" dy="820" grid="1" gridSize="10" guides="1" tooltips="1" connect="1" arrows="1" fold="1" page="0" pageScale="1" pageWidth="827" pageHeight="1169" math="0" shadow="0">
      <root>
        <mxCell id="0" />
        <mxCell id="1" parent="0" />
        <mxCell id="t4VYkbU2t2N1envLZFxE-2" value="" style="rounded=0;whiteSpace=wrap;html=1;fillColor=none;fontStyle=4" parent="1" vertex="1">
          <mxGeometry x="39.5" y="60" width="761" height="570" as="geometry" />
        </mxCell>
        <mxCell id="-U8MPYF6lskRumblzijs-10" value="" style="whiteSpace=wrap;html=1;aspect=fixed;" parent="1" vertex="1">
          <mxGeometry x="-195" y="500" width="115" height="115" as="geometry" />
        </mxCell>
        <mxCell id="hpL2_ES2ks1Mv8uANRjT-20" value="" style="whiteSpace=wrap;html=1;aspect=fixed;" parent="1" vertex="1">
          <mxGeometry x="-200" y="30" width="80" height="80" as="geometry" />
        </mxCell>
        <mxCell id="hpL2_ES2ks1Mv8uANRjT-19" value="" style="rounded=0;whiteSpace=wrap;html=1;" parent="1" vertex="1">
          <mxGeometry x="150" y="450" width="250" height="80" as="geometry" />
        </mxCell>
        <mxCell id="hpL2_ES2ks1Mv8uANRjT-18" value="" style="whiteSpace=wrap;html=1;aspect=fixed;" parent="1" vertex="1">
          <mxGeometry x="70" y="350" width="80" height="80" as="geometry" />
        </mxCell>
        <mxCell id="t4VYkbU2t2N1envLZFxE-4" value="&lt;span&gt;contact us&lt;br&gt;&lt;/span&gt;" style="text;html=1;strokeColor=none;fillColor=none;align=center;verticalAlign=middle;whiteSpace=wrap;rounded=0;fontStyle=4" parent="1" vertex="1">
          <mxGeometry x="70" y="110" width="60" height="30" as="geometry" />
        </mxCell>
        <mxCell id="t4VYkbU2t2N1envLZFxE-5" value="search leBaie" style="rounded=0;whiteSpace=wrap;html=1;fillColor=none;" parent="1" vertex="1">
          <mxGeometry x="110" y="170" width="600" height="30" as="geometry" />
        </mxCell>
        <mxCell id="t4VYkbU2t2N1envLZFxE-6" value="internal hyperlink " style="text;html=1;fillColor=none;align=center;verticalAlign=middle;whiteSpace=wrap;rounded=0;" parent="1" vertex="1">
          <mxGeometry x="-190" y="50" width="60" height="30" as="geometry" />
        </mxCell>
        <mxCell id="t4VYkbU2t2N1envLZFxE-7" value="" style="endArrow=classic;html=1;rounded=0;" parent="1" edge="1">
          <mxGeometry width="50" height="50" relative="1" as="geometry">
            <mxPoint x="-110" y="330" as="sourcePoint" />
            <mxPoint x="110" y="240" as="targetPoint" />
          </mxGeometry>
        </mxCell>
        <mxCell id="t4VYkbU2t2N1envLZFxE-8" value="" style="endArrow=classic;html=1;rounded=0;" parent="1" edge="1">
          <mxGeometry width="50" height="50" relative="1" as="geometry">
            <mxPoint x="-120" y="80" as="sourcePoint" />
            <mxPoint x="60" y="130" as="targetPoint" />
          </mxGeometry>
        </mxCell>
        <mxCell id="t4VYkbU2t2N1envLZFxE-11" value="Search" style="rounded=0;whiteSpace=wrap;html=1;" parent="1" vertex="1">
          <mxGeometry x="700" y="170" width="60" height="30" as="geometry" />
        </mxCell>
        <mxCell id="t4VYkbU2t2N1envLZFxE-12" value="navigation bar" style="rounded=0;whiteSpace=wrap;html=1;fillColor=none;" parent="1" vertex="1">
          <mxGeometry x="-200" y="285" width="80" height="85" as="geometry" />
        </mxCell>
        <mxCell id="t4VYkbU2t2N1envLZFxE-13" value="" style="endArrow=classic;html=1;rounded=0;" parent="1" edge="1">
          <mxGeometry width="50" height="50" relative="1" as="geometry">
            <mxPoint x="960" y="370" as="sourcePoint" />
            <mxPoint x="770" y="190" as="targetPoint" />
          </mxGeometry>
        </mxCell>
        <mxCell id="t4VYkbU2t2N1envLZFxE-14" value="Search button" style="rounded=0;whiteSpace=wrap;html=1;fillColor=none;" parent="1" vertex="1">
          <mxGeometry x="980" y="380" width="120" height="40" as="geometry" />
        </mxCell>
        <mxCell id="t4VYkbU2t2N1envLZFxE-21" value="&lt;span&gt;Home &lt;/span&gt;" style="text;html=1;strokeColor=none;fillColor=none;align=center;verticalAlign=middle;whiteSpace=wrap;rounded=0;fontStyle=4" parent="1" vertex="1">
          <mxGeometry x="130" y="230" width="60" height="30" as="geometry" />
        </mxCell>
        <mxCell id="t4VYkbU2t2N1envLZFxE-22" value="Electronics " style="text;html=1;strokeColor=none;fillColor=none;align=center;verticalAlign=middle;whiteSpace=wrap;rounded=0;fontStyle=4" parent="1" vertex="1">
          <mxGeometry x="451" y="230" width="60" height="30" as="geometry" />
        </mxCell>
        <mxCell id="t4VYkbU2t2N1envLZFxE-23" value="Clothing" style="text;html=1;strokeColor=none;fillColor=none;align=center;verticalAlign=middle;whiteSpace=wrap;rounded=0;fontStyle=4" parent="1" vertex="1">
          <mxGeometry x="346" y="230" width="60" height="30" as="geometry" />
        </mxCell>
        <mxCell id="t4VYkbU2t2N1envLZFxE-24" value="Vehicles" style="text;html=1;strokeColor=none;fillColor=none;align=center;verticalAlign=middle;whiteSpace=wrap;rounded=0;fontStyle=4" parent="1" vertex="1">
          <mxGeometry x="621" y="230" width="60" height="30" as="geometry" />
        </mxCell>
        <mxCell id="t4VYkbU2t2N1envLZFxE-25" value="About us" style="text;html=1;strokeColor=none;fillColor=none;align=center;verticalAlign=middle;whiteSpace=wrap;rounded=0;fontStyle=4" parent="1" vertex="1">
          <mxGeometry x="246" y="230" width="60" height="30" as="geometry" />
        </mxCell>
        <mxCell id="t4VYkbU2t2N1envLZFxE-26" value="Games" style="text;html=1;strokeColor=none;fillColor=none;align=center;verticalAlign=middle;whiteSpace=wrap;rounded=0;fontStyle=4" parent="1" vertex="1">
          <mxGeometry x="541" y="230" width="60" height="30" as="geometry" />
        </mxCell>
        <mxCell id="t4VYkbU2t2N1envLZFxE-27" value="&lt;font style=&quot;font-size: 35px;&quot;&gt;leBaie&lt;/font&gt;" style="text;html=1;strokeColor=none;fillColor=none;align=center;verticalAlign=middle;whiteSpace=wrap;rounded=0;" parent="1" vertex="1">
          <mxGeometry x="70" y="70" width="60" height="30" as="geometry" />
        </mxCell>
        <mxCell id="t4VYkbU2t2N1envLZFxE-30" value="&lt;b&gt;&lt;font style=&quot;font-size: 20px;&quot;&gt;Results&amp;nbsp;&lt;/font&gt;&lt;/b&gt;" style="text;html=1;strokeColor=none;fillColor=none;align=center;verticalAlign=middle;whiteSpace=wrap;rounded=0;" parent="1" vertex="1">
          <mxGeometry x="75" y="280" width="60" height="30" as="geometry" />
        </mxCell>
        <mxCell id="hpL2_ES2ks1Mv8uANRjT-1" value="" style="rounded=0;whiteSpace=wrap;html=1;" parent="1" vertex="1">
          <mxGeometry x="150" y="350" width="250" height="80" as="geometry" />
        </mxCell>
        <mxCell id="hpL2_ES2ks1Mv8uANRjT-3" value="Product 1&lt;br&gt;£.....&lt;br&gt;Add to basket" style="text;html=1;strokeColor=none;fillColor=none;align=center;verticalAlign=middle;whiteSpace=wrap;rounded=0;" parent="1" vertex="1">
          <mxGeometry x="150" y="370" width="100" height="30" as="geometry" />
        </mxCell>
        <mxCell id="hpL2_ES2ks1Mv8uANRjT-4" value="&amp;nbsp;results displayed using php and SQL to display data" style="text;html=1;strokeColor=none;fillColor=none;align=center;verticalAlign=middle;whiteSpace=wrap;rounded=0;" parent="1" vertex="1">
          <mxGeometry x="-185" y="487.5" width="105" height="140" as="geometry" />
        </mxCell>
        <mxCell id="hpL2_ES2ks1Mv8uANRjT-5" value="" style="endArrow=classic;html=1;rounded=0;" parent="1" edge="1">
          <mxGeometry width="50" height="50" relative="1" as="geometry">
            <mxPoint x="-80" y="550" as="sourcePoint" />
            <mxPoint x="70" y="502.6315789473683" as="targetPoint" />
          </mxGeometry>
        </mxCell>
        <mxCell id="hpL2_ES2ks1Mv8uANRjT-6" value="" style="endArrow=classic;html=1;rounded=0;" parent="1" edge="1">
          <mxGeometry width="50" height="50" relative="1" as="geometry">
            <mxPoint x="-80" y="550" as="sourcePoint" />
            <mxPoint x="70" y="573.6842105263158" as="targetPoint" />
          </mxGeometry>
        </mxCell>
        <mxCell id="hpL2_ES2ks1Mv8uANRjT-7" value="" style="endArrow=classic;html=1;rounded=0;entryX=0;entryY=0.5;entryDx=0;entryDy=0;" parent="1" edge="1">
          <mxGeometry width="50" height="50" relative="1" as="geometry">
            <mxPoint x="-80" y="550" as="sourcePoint" />
            <mxPoint x="70" y="390" as="targetPoint" />
          </mxGeometry>
        </mxCell>
        <mxCell id="hpL2_ES2ks1Mv8uANRjT-8" value="" style="whiteSpace=wrap;html=1;aspect=fixed;" parent="1" vertex="1">
          <mxGeometry x="70" y="450" width="80" height="80" as="geometry" />
        </mxCell>
        <mxCell id="hpL2_ES2ks1Mv8uANRjT-9" value="Product 1&lt;br&gt;£.....&lt;br&gt;Add to basket" style="text;html=1;strokeColor=none;fillColor=none;align=center;verticalAlign=middle;whiteSpace=wrap;rounded=0;" parent="1" vertex="1">
          <mxGeometry x="150" y="470" width="100" height="30" as="geometry" />
        </mxCell>
        <mxCell id="hpL2_ES2ks1Mv8uANRjT-10" value="" style="rounded=0;whiteSpace=wrap;html=1;" parent="1" vertex="1">
          <mxGeometry x="150" y="540" width="250" height="80" as="geometry" />
        </mxCell>
        <mxCell id="hpL2_ES2ks1Mv8uANRjT-11" value="" style="whiteSpace=wrap;html=1;aspect=fixed;" parent="1" vertex="1">
          <mxGeometry x="70" y="540" width="80" height="80" as="geometry" />
        </mxCell>
        <mxCell id="hpL2_ES2ks1Mv8uANRjT-12" value="Product 1&lt;br&gt;£.....&lt;br&gt;Add to basket" style="text;html=1;strokeColor=none;fillColor=none;align=center;verticalAlign=middle;whiteSpace=wrap;rounded=0;" parent="1" vertex="1">
          <mxGeometry x="150" y="560" width="100" height="30" as="geometry" />
        </mxCell>
        <mxCell id="hpL2_ES2ks1Mv8uANRjT-13" value="image of product" style="text;html=1;strokeColor=none;fillColor=none;align=center;verticalAlign=middle;whiteSpace=wrap;rounded=0;" parent="1" vertex="1">
          <mxGeometry x="84" y="370" width="60" height="30" as="geometry" />
        </mxCell>
        <mxCell id="hpL2_ES2ks1Mv8uANRjT-14" value="image of product" style="text;html=1;strokeColor=none;fillColor=none;align=center;verticalAlign=middle;whiteSpace=wrap;rounded=0;" parent="1" vertex="1">
          <mxGeometry x="84" y="480" width="60" height="30" as="geometry" />
        </mxCell>
        <mxCell id="hpL2_ES2ks1Mv8uANRjT-15" value="image of product" style="text;html=1;strokeColor=none;fillColor=none;align=center;verticalAlign=middle;whiteSpace=wrap;rounded=0;" parent="1" vertex="1">
          <mxGeometry x="84" y="565" width="60" height="30" as="geometry" />
        </mxCell>
        <mxCell id="-U8MPYF6lskRumblzijs-1" value="&lt;u&gt;register here&lt;/u&gt;" style="text;html=1;strokeColor=none;fillColor=none;align=center;verticalAlign=middle;whiteSpace=wrap;rounded=0;" parent="1" vertex="1">
          <mxGeometry x="530" y="70" width="60" height="30" as="geometry" />
        </mxCell>
        <mxCell id="-U8MPYF6lskRumblzijs-2" value="&lt;u&gt;login here&lt;/u&gt;" style="text;html=1;strokeColor=none;fillColor=none;align=center;verticalAlign=middle;whiteSpace=wrap;rounded=0;" parent="1" vertex="1">
          <mxGeometry x="629" y="70" width="45" height="30" as="geometry" />
        </mxCell>
        <mxCell id="-U8MPYF6lskRumblzijs-3" value="" style="endArrow=classic;html=1;rounded=0;exitX=0;exitY=0.5;exitDx=0;exitDy=0;entryX=1;entryY=1;entryDx=0;entryDy=0;" parent="1" source="-U8MPYF6lskRumblzijs-4" target="-U8MPYF6lskRumblzijs-1" edge="1">
          <mxGeometry width="50" height="50" relative="1" as="geometry">
            <mxPoint x="1000" y="270" as="sourcePoint" />
            <mxPoint x="620" y="100" as="targetPoint" />
          </mxGeometry>
        </mxCell>
        <mxCell id="-U8MPYF6lskRumblzijs-4" value="internal hyperlink to registration" style="rounded=0;whiteSpace=wrap;html=1;fillColor=none;" parent="1" vertex="1">
          <mxGeometry x="1015" y="230" width="70" height="90" as="geometry" />
        </mxCell>
        <mxCell id="-U8MPYF6lskRumblzijs-5" value="internal hyperlink to login page&amp;nbsp;" style="rounded=0;whiteSpace=wrap;html=1;fillColor=none;" parent="1" vertex="1">
          <mxGeometry x="1010" y="110" width="70" height="90" as="geometry" />
        </mxCell>
        <mxCell id="-U8MPYF6lskRumblzijs-6" value="" style="endArrow=classic;html=1;rounded=0;entryX=1;entryY=0.75;entryDx=0;entryDy=0;" parent="1" target="-U8MPYF6lskRumblzijs-2" edge="1">
          <mxGeometry width="50" height="50" relative="1" as="geometry">
            <mxPoint x="1010" y="190" as="sourcePoint" />
            <mxPoint x="1060" y="140" as="targetPoint" />
          </mxGeometry>
        </mxCell>
        <mxCell id="-U8MPYF6lskRumblzijs-7" value="image of basket" style="text;html=1;strokeColor=none;fillColor=none;align=center;verticalAlign=middle;whiteSpace=wrap;rounded=0;" parent="1" vertex="1">
          <mxGeometry x="720" y="70" width="60" height="30" as="geometry" />
        </mxCell>
        <mxCell id="-U8MPYF6lskRumblzijs-8" value="internal hyperlink to login page and basket page (on click event)" style="rounded=0;whiteSpace=wrap;html=1;fillColor=none;" parent="1" vertex="1">
          <mxGeometry x="880" y="30" width="70" height="90" as="geometry" />
        </mxCell>
        <mxCell id="-U8MPYF6lskRumblzijs-9" value="" style="endArrow=classic;html=1;rounded=0;entryX=1.117;entryY=0.433;entryDx=0;entryDy=0;entryPerimeter=0;" parent="1" target="-U8MPYF6lskRumblzijs-7" edge="1">
          <mxGeometry width="50" height="50" relative="1" as="geometry">
            <mxPoint x="880" y="90" as="sourcePoint" />
            <mxPoint x="930" y="40" as="targetPoint" />
          </mxGeometry>
        </mxCell>
      </root>
    </mxGraphModel>
  </diagram>
</mxfile>
